<?xml version="1.0"?>
<svg width="45" height="53" xmlns="http://www.w3.org/2000/svg" xmlns:svg="http://www.w3.org/2000/svg">
 <g class="layer">
  <title>Layer 1</title>
  <path d="m41.874384,18.8165c-0.73414,-0.402 -1.409471,-0.8901 -2.128883,-1.3207c-0.176222,-0.1005 -0.234929,-0.201 -0.205576,-0.402c0.234929,-1.5647 0.411049,-3.1295 0.484483,-4.6942c0.058707,-1.2633 -0.440504,-2.2825 -1.512259,-2.98597c-4.30195,-2.82803 -8.589172,-5.65605 -12.9351,-8.42666c-2.055551,-1.30635 -4.257869,-1.3207 -6.298692,-0.01436c-4.360656,2.77061 -8.677232,5.62735 -12.97912,8.46974c-1.027755,0.67475 -1.526956,1.67955 -1.482905,2.89985c0.058727,1.5934 0.249606,3.1869 0.484514,4.766c0.029364,0.2297 -0.029364,0.3445 -0.220232,0.4594c-0.748796,0.4593 -1.497592,0.9331 -2.246389,1.3924c-2.290439,1.4356 -3.28883,3.7899 -2.672175,6.3882c2.716226,11.2978 9.103039,20.0833 19.01352,26.4285c2.128985,1.3637 4.375384,1.3637 6.518995,0.0143c7.208952,-4.5363 12.65609,-10.58 16.2239,-18.2314c0.08806,-0.1867 0.234929,-0.3446 0.264282,-0.5599c0.102788,-0.6891 -0.455232,-1.2489 -1.277432,-1.2489c-4.977281,0 -9.954562,0 -14.931843,0c-0.513837,0 -0.880907,0.1866 -1.174542,0.6029c-0.631352,0.9331 -1.350764,1.8088 -2.099632,2.6414c-0.293636,0.3302 -0.293636,0.3302 -0.587271,0c-3.420941,-3.8186 -5.623259,-8.2113 -6.606953,-13.207c-0.044081,-0.2154 -0.000102,-0.3302 0.190848,-0.4451c2.158237,-1.3924 4.316575,-2.7993 6.474812,-4.2061c0.161597,-0.1005 0.27901,-0.1292 0.455232,-0.0144c2.158237,1.4212 4.331201,2.8281 6.504165,4.2205c0.161494,0.1149 0.220303,0.201 0.176222,0.4163c-0.264282,1.3638 -0.631352,2.6845 -1.086482,3.9909c-0.322989,0.9474 0.146869,1.5791 1.159917,1.5791c2.305105,0 4.595483,0 6.900691,0c2.334459,0 4.668918,0 7.003376,0c0.616727,0 0.983694,-0.2871 1.145189,-0.8614c0.088162,-0.3014 0.146869,-0.6029 0.234929,-0.89c0.836928,-2.9429 -0.528564,-5.4981 -2.789589,-6.7614zm-7.810951,15.2742c0.073434,-0.1292 0.146767,-0.2297 0.337717,-0.2297c1.629672,0.0144 3.274072,0 4.918472,0c0.014728,0.1579 -0.058707,0.2297 -0.102686,0.3158c-3.435669,6.5892 -8.383596,11.8433 -14.741097,15.8341c-1.321309,0.8327 -2.716154,0.847 -4.02294,0.0144c-9.514057,-6.0437 -15.621881,-14.4416 -18.191279,-25.2657c-0.381747,-1.6365 0.249595,-3.1007 1.703137,-4.0051c0.572615,-0.3589 1.130533,-0.7035 1.747188,-1.0911c0.234919,1.1341 0.45515,2.2251 0.73412,3.3018c1.365451,5.3115 3.450376,10.336 6.695095,14.8292c1.952763,2.6989 4.272596,5.0388 7.120892,6.8476c1.453552,0.9187 2.863023,0.9187 4.316575,0c3.083327,-1.9524 5.535301,-4.5363 7.59075,-7.4936c0.675433,-0.9761 1.321411,-1.9954 1.894057,-3.0577zm3.024518,-15.346c-0.381696,2.0815 -0.866281,4.1487 -1.482905,6.1872c-0.073434,0.2153 -0.146767,0.3015 -0.396423,0.3015c-1.482905,-0.0144 -2.965811,0 -4.492798,0c0.308363,-1.091 0.587271,-2.139 0.778221,-3.23c0.161494,-0.9475 -0.132141,-1.737 -0.939716,-2.2682c-2.290378,-1.5217 -4.595483,-3.0146 -6.900691,-4.4932c-0.778119,-0.5025 -1.629672,-0.5025 -2.407893,-0.0144c-2.319731,1.4786 -4.639564,2.9859 -6.94467,4.5076c-0.778119,0.5168 -1.10121,1.3064 -0.939613,2.2108c1.027673,5.5268 3.46492,10.3933 7.282386,14.5995c1.027776,1.1341 2.540034,1.1341 3.567708,0.0143c0.704787,-0.7751 1.38022,-1.5791 1.996844,-2.426c0.146869,-0.201 0.293636,-0.2728 0.54319,-0.2728c1.629774,0.0144 3.259549,0 4.903949,0c0,0.0431 0.014626,0.0862 0,0.1149c-1.952763,3.2587 -4.316575,6.1728 -7.50269,8.3836c-0.308261,0.2153 -0.645978,0.4163 -0.968967,0.6172c-0.513939,0.3302 -1.027776,0.3159 -1.541714,0c-2.070177,-1.2632 -3.846718,-2.8567 -5.38833,-4.6942c-2.936458,-3.4597 -4.947928,-7.4218 -6.430833,-11.6423c-0.925008,-2.5983 -1.585703,-5.2685 -2.084904,-7.9673c-0.04405,-0.244 0.073414,-0.3158 0.234919,-0.4306c2.789599,-1.7371 5.57929,-3.4884 8.383606,-5.2254c1.747188,-1.0911 3.509001,-2.1821 5.241563,-3.27309c0.587271,-0.37324 1.130461,-0.37324 1.717834,0c4.492695,2.81369 9.000221,5.62739 13.507644,8.42669c0.220201,0.1579 0.308363,0.2871 0.264282,0.5742zm0.08806,-2.8567c-4.243141,-2.6415 -8.50101,-5.2972 -12.74415,-7.93862c-1.321411,-0.83262 -2.65755,-0.81827 -3.978961,0c-4.243141,2.64142 -8.471656,5.28282 -12.714797,7.92422c-0.117464,0.0718 -0.234919,0.1436 -0.4111,0.2584c-0.088101,-0.8326 -0.176192,-1.6222 -0.249606,-2.3974c-0.04404,-0.4163 -0.04404,-0.8469 -0.088091,-1.2632c-0.073404,-0.6317 0.190868,-1.0767 0.73412,-1.4356c3.773334,-2.45478 7.54672,-4.92392 11.320003,-7.39307c0.425777,-0.27275 0.851553,-0.55986 1.27733,-0.83262c1.38022,-0.86132 2.804317,-0.89004 4.169809,0c4.243141,2.7419 8.457031,5.51251 12.685444,8.28309c0.484586,0.3158 0.704787,0.7322 0.675433,1.292c-0.073434,1.2202 -0.190848,2.4261 -0.352342,3.6463c-0.161597,0.0144 -0.234929,-0.0861 -0.323091,-0.1435zm5.417785,9.1588c-0.044081,0.1292 -0.08806,0.1866 -0.234929,0.1866c-1.512259,0 -3.039245,0 -4.580858,0c0.543292,-1.8375 0.998422,-3.675 1.350764,-5.5556c0.234929,0.0718 0.425777,0.2297 0.616727,0.3445c0.425777,0.2584 0.851553,0.5168 1.262602,0.7896c1.46828,0.9187 2.084904,2.584 1.585693,4.2349z" fill="#333333" id="Vector"/>
 </g>
</svg>